<?xml version="1.0" encoding="UTF-8" standalone="no"?>
<!-- Created with Inkscape (http://www.inkscape.org/) -->

<svg
   xmlns:dc="http://purl.org/dc/elements/1.1/"
   xmlns:cc="http://creativecommons.org/ns#"
   xmlns:rdf="http://www.w3.org/1999/02/22-rdf-syntax-ns#"
   xmlns:svg="http://www.w3.org/2000/svg"
   xmlns="http://www.w3.org/2000/svg"
   xmlns:xlink="http://www.w3.org/1999/xlink"
   xmlns:sodipodi="http://sodipodi.sourceforge.net/DTD/sodipodi-0.dtd"
   xmlns:inkscape="http://www.inkscape.org/namespaces/inkscape"
   width="640"
   height="480"
   id="svg2"
   version="1.1"
   inkscape:version="0.48.0 r9654"
   sodipodi:docname="fsos_boot.svg"
   inkscape:export-xdpi="90"
   inkscape:export-ydpi="90">
  <defs
     id="defs4">
    <linearGradient
       id="linearGradient3815">
      <stop
         id="stop3817"
         offset="0"
         style="stop-color:#006080;stop-opacity:1;" />
      <stop
         id="stop3819"
         offset="1"
         style="stop-color:#003040;stop-opacity:1;" />
    </linearGradient>
    <linearGradient
       id="linearGradient3791">
      <stop
         style="stop-color:#006080;stop-opacity:1;"
         offset="0"
         id="stop3793" />
      <stop
         style="stop-color:#003040;stop-opacity:1;"
         offset="1"
         id="stop3795" />
    </linearGradient>
    <linearGradient
       id="linearGradient3883">
      <stop
         style="stop-color:#004455;stop-opacity:1;"
         offset="0"
         id="stop3885" />
      <stop
         style="stop-color:#004455;stop-opacity:0;"
         offset="1"
         id="stop3887" />
    </linearGradient>
    <inkscape:perspective
       sodipodi:type="inkscape:persp3d"
       inkscape:vp_x="0 : 526.18109 : 1"
       inkscape:vp_y="0 : 1000 : 0"
       inkscape:vp_z="744.09448 : 526.18109 : 1"
       inkscape:persp3d-origin="372.04724 : 350.78739 : 1"
       id="perspective10" />
    <inkscape:perspective
       id="perspective2824"
       inkscape:persp3d-origin="0.5 : 0.33333333 : 1"
       inkscape:vp_z="1 : 0.5 : 1"
       inkscape:vp_y="0 : 1000 : 0"
       inkscape:vp_x="0 : 0.5 : 1"
       sodipodi:type="inkscape:persp3d" />
    <inkscape:perspective
       id="perspective2938"
       inkscape:persp3d-origin="0.5 : 0.33333333 : 1"
       inkscape:vp_z="1 : 0.5 : 1"
       inkscape:vp_y="0 : 1000 : 0"
       inkscape:vp_x="0 : 0.5 : 1"
       sodipodi:type="inkscape:persp3d" />
    <filter
       inkscape:collect="always"
       id="filter3757"
       x="-0.10530543"
       width="1.2106109"
       y="-0.088205616"
       height="1.1764112">
      <feGaussianBlur
         inkscape:collect="always"
         stdDeviation="5.7910669"
         id="feGaussianBlur3759" />
    </filter>
    <inkscape:perspective
       id="perspective3785"
       inkscape:persp3d-origin="0.5 : 0.33333333 : 1"
       inkscape:vp_z="1 : 0.5 : 1"
       inkscape:vp_y="0 : 1000 : 0"
       inkscape:vp_x="0 : 0.5 : 1"
       sodipodi:type="inkscape:persp3d" />
    <filter
       inkscape:collect="always"
       id="filter3826"
       x="-0.020723023"
       width="1.041446"
       y="-0.13698539"
       height="1.2739708">
      <feGaussianBlur
         inkscape:collect="always"
         stdDeviation="1.2815625"
         id="feGaussianBlur3828" />
    </filter>
    <inkscape:perspective
       id="perspective3838"
       inkscape:persp3d-origin="0.5 : 0.33333333 : 1"
       inkscape:vp_z="1 : 0.5 : 1"
       inkscape:vp_y="0 : 1000 : 0"
       inkscape:vp_x="0 : 0.5 : 1"
       sodipodi:type="inkscape:persp3d" />
    <inkscape:perspective
       id="perspective3865"
       inkscape:persp3d-origin="0.5 : 0.33333333 : 1"
       inkscape:vp_z="1 : 0.5 : 1"
       inkscape:vp_y="0 : 1000 : 0"
       inkscape:vp_x="0 : 0.5 : 1"
       sodipodi:type="inkscape:persp3d" />
    <inkscape:perspective
       id="perspective3907"
       inkscape:persp3d-origin="0.5 : 0.33333333 : 1"
       inkscape:vp_z="1 : 0.5 : 1"
       inkscape:vp_y="0 : 1000 : 0"
       inkscape:vp_x="0 : 0.5 : 1"
       sodipodi:type="inkscape:persp3d" />
    <inkscape:perspective
       id="perspective4039"
       inkscape:persp3d-origin="0.5 : 0.33333333 : 1"
       inkscape:vp_z="1 : 0.5 : 1"
       inkscape:vp_y="0 : 1000 : 0"
       inkscape:vp_x="0 : 0.5 : 1"
       sodipodi:type="inkscape:persp3d" />
    <linearGradient
       inkscape:collect="always"
       xlink:href="#linearGradient3815"
       id="linearGradient3797"
       x1="0"
       y1="240"
       x2="640"
       y2="240"
       gradientUnits="userSpaceOnUse" />
    <linearGradient
       inkscape:collect="always"
       xlink:href="#linearGradient3791"
       id="linearGradient3805"
       x1="244.36874"
       y1="688.72754"
       x2="404.14917"
       y2="688.72754"
       gradientUnits="userSpaceOnUse" />
    <linearGradient
       inkscape:collect="always"
       xlink:href="#linearGradient3791"
       id="linearGradient3813"
       x1="207.09286"
       y1="788.99432"
       x2="426.70224"
       y2="788.99432"
       gradientUnits="userSpaceOnUse" />
  </defs>
  <sodipodi:namedview
     id="base"
     pagecolor="#ffffff"
     bordercolor="#666666"
     borderopacity="1.0"
     inkscape:pageopacity="0.0"
     inkscape:pageshadow="2"
     inkscape:zoom="1"
     inkscape:cx="268.14028"
     inkscape:cy="247.13514"
     inkscape:document-units="px"
     inkscape:current-layer="layer1"
     showgrid="false"
     showguides="false"
     inkscape:guide-bbox="true"
     inkscape:window-width="1174"
     inkscape:window-height="891"
     inkscape:window-x="58"
     inkscape:window-y="48"
     inkscape:window-maximized="0" />
  <metadata
     id="metadata7">
    <rdf:RDF>
      <cc:Work
         rdf:about="">
        <dc:format>image/svg+xml</dc:format>
        <dc:type
           rdf:resource="http://purl.org/dc/dcmitype/StillImage" />
        <dc:title></dc:title>
      </cc:Work>
    </rdf:RDF>
  </metadata>
  <g
     inkscape:label="Laag 1"
     inkscape:groupmode="layer"
     id="layer1"
     transform="translate(0,-572.36218)">
    <rect
       style="fill:#000000;fill-opacity:1;stroke:none"
       id="rect3761"
       width="640"
       height="480"
       x="0"
       y="572.36218" />
    <path
       style="fill:url(#linearGradient3805);fill-opacity:1.0;stroke:none;filter:url(#filter3757)"
       d="m 323.50911,609.94306 c -7.76918,0.0253 -15.60646,1.58742 -23.06936,4.77297 -7.17817,3.06401 -12.77519,6.86718 -18.43222,12.52421 -6.69807,6.69807 -11.35288,14.18828 -14.28011,22.98206 -4.48257,13.46615 -3.97457,28.57118 1.39696,41.30757 l 1.10594,2.61931 -1.76562,3.54093 c -1.45207,2.91904 -2.1496,3.93904 -3.96778,5.75279 -2.42732,2.42142 -3.73099,4.61603 -4.94759,8.34301 -1.35168,4.14075 -1.56129,6.92742 -0.97012,12.87344 0.86882,8.73838 1.97855,12.92468 3.81256,14.36728 0.55353,0.4354 1.05608,0.626 1.6201,0.5724 0.43868,-0.042 0.91158,-0.235 1.46487,-0.5724 0.0788,-0.048 0.16437,-0.099 0.24253,-0.1552 1.1724,-0.8389 2.26359,-2.5577 3.10437,-4.8797 0.38524,-1.0639 0.83021,-1.9727 0.97982,-2.0179 0.14962,-0.045 0.74303,0.6157 1.31936,1.4649 2.92336,4.3077 7.31357,8.4922 11.05933,10.5452 1.02445,0.5615 2.8405,1.6873 4.03569,2.4932 1.19518,0.8059 2.97631,1.913 3.95807,2.4641 0.40384,0.2267 0.75686,0.4459 1.05743,0.6403 0.9014,0.608 0.86686,0.8781 0.0291,1.0574 -0.89498,0.1915 -5.60792,0.7179 -8.61463,0.9604 -3.12039,0.2517 -4.92497,0.8667 -6.51918,2.2313 -4.08672,3.4981 -3.03841,8.9833 2.17306,11.3794 1.18497,0.5449 1.92042,0.6392 4.86028,0.5821 2.88091,-0.056 3.69298,0.035 4.81178,0.5433 1.64638,0.7471 4.85915,0.8004 7.55721,0.1358 1.02445,-0.2524 3.2113,-0.5421 4.86029,-0.65 2.4425,-0.1598 3.23862,-0.096 4.32672,0.3396 1.57848,0.6315 4.57739,0.7059 6.38337,0.1649 0.70763,-0.212 2.03708,-0.9475 2.94915,-1.6396 2.67846,-2.0322 6.56118,-4.2781 7.22737,-4.1811 0.40513,0.059 0.72,0.4601 0.92161,1.1738 0.17453,0.6179 1.00256,1.775 1.91112,2.6873 2.42036,2.43 5.78666,3.1972 9.32283,2.1245 2.22229,-0.6742 6.54976,-0.6022 8.57582,0.1358 0.9028,0.3289 1.91889,0.6685 2.26038,0.7567 1.37672,0.3558 4.46622,-0.057 6.12143,-0.8149 1.68911,-0.7733 1.69965,-0.772 5.0446,-0.3395 2.94213,0.3804 3.57231,0.3756 5.19013,-0.039 2.5859,-0.6624 4.36238,-1.9758 5.34534,-3.9483 0.9636,-1.9338 1.02398,-3.6482 0.19402,-5.3745 -0.73415,-1.527 -1.10847,-1.9747 -2.4932,-2.9976 -1.42746,-1.0546 -2.5824,-1.3931 -6.655,-1.9597 -1.59192,-0.2215 -2.97892,-0.4644 -3.41481,-0.5917 -0.10054,-0.083 -0.17462,-0.1552 -0.17462,-0.2038 0.0922,-0.3093 0.96292,-0.865 2.33798,-1.5037 0.18194,-0.083 0.38783,-0.1822 0.59177,-0.2716 0.0731,-0.032 0.15754,-0.065 0.23283,-0.097 0.11834,-0.051 0.25309,-0.1117 0.37835,-0.1649 0.1018,-0.042 0.19557,-0.084 0.30074,-0.1261 0.0379,-0.015 0.0691,-0.034 0.1067,-0.049 0.0894,-0.037 0.16939,-0.069 0.26194,-0.1067 0.42264,-0.1737 0.82704,-0.342 1.21265,-0.5141 0.0337,-0.015 0.0635,-0.034 0.097,-0.049 0.73992,-0.3328 1.44111,-0.6694 2.11486,-1.038 0.0291,-0.016 0.0582,-0.033 0.0873,-0.049 0.31892,-0.176 0.64063,-0.3598 0.96041,-0.553 0.0256,-0.015 0.052,-0.033 0.0776,-0.049 0.24197,-0.1471 0.48958,-0.2959 0.73729,-0.4559 1.14346,-0.7318 2.33422,-1.5897 3.76405,-2.697 0.12333,-0.096 0.24607,-0.1939 0.36864,-0.291 0.1657,-0.1318 0.3306,-0.2633 0.49476,-0.3977 0.72822,-0.5943 1.44025,-1.2198 2.13426,-1.8627 0.12245,-0.1135 0.24744,-0.2248 0.36864,-0.3395 0.23293,-0.2205 0.46058,-0.4442 0.68878,-0.6694 0.0358,-0.035 0.0711,-0.071 0.10672,-0.1067 1.80635,-1.794 3.45471,-3.7222 4.86999,-5.7043 0.0282,-0.039 0.0592,-0.077 0.0873,-0.1164 0.18456,-0.2605 0.36706,-0.524 0.54327,-0.7858 0.0198,-0.029 0.0385,-0.058 0.0582,-0.087 0.18142,-0.2712 0.35183,-0.5428 0.52386,-0.8149 0.0126,-0.02 0.0263,-0.038 0.0388,-0.058 0.17606,-0.2796 0.35817,-0.5637 0.52387,-0.84395 0.007,-0.013 0.012,-0.026 0.0194,-0.039 0.17242,-0.2925 0.33412,-0.5807 0.49475,-0.8731 0.68004,-1.23775 1.33912,-2.25055 1.46489,-2.25055 0.12574,0 0.62655,1.1525 1.11562,2.56095 1.92411,5.54155 4.60196,9.54585 6.38338,9.54585 0.29416,0 0.63756,-0.1499 0.97981,-0.4074 0.0684,-0.052 0.13539,-0.1054 0.20373,-0.1649 0.68329,-0.5954 1.34272,-1.5784 1.63949,-2.5611 0.99392,-3.2915 0.23653,-20.61047 -1.13503,-25.89229 -1.24781,-4.80527 -4.29583,-9.17468 -6.84902,-9.81758 -1.28953,-0.32471 -1.36109,-0.40299 -3.04617,-3.79315 l -1.71711,-3.46332 1.36786,-3.41481 c 2.56744,-6.40473 3.82092,-12.38055 4.0939,-19.55756 0.64926,-17.07012 -6.00369,-33.40035 -18.36431,-45.10072 -11.22697,-10.62581 -25.80605,-16.18948 -40.63815,-16.14124 z"
       id="rect2925-4" />
    <path
       style="fill:url(#linearGradient3797);fill-opacity:1.0;stroke:none"
       d="M 0 0 L 0 480 L 640 480 L 640 0 L 0 0 z M 319.6875 35.59375 C 334.51959 35.54555 349.08553 41.09294 360.3125 51.71875 C 372.67312 63.41912 379.33676 79.74238 378.6875 96.8125 C 378.41452 103.98951 377.16119 109.97027 374.59375 116.375 L 373.21875 119.78125 L 374.9375 123.25 C 376.62258 126.64016 376.67922 126.73779 377.96875 127.0625 C 380.52194 127.7054 383.59594 132.06973 384.84375 136.875 C 386.21531 142.15682 386.96267 159.4585 385.96875 162.75 C 385.67198 163.7327 384.99579 164.7171 384.3125 165.3125 C 384.2442 165.372 384.1934 165.448 384.125 165.5 C 383.78275 165.7575 383.45041 165.90625 383.15625 165.90625 C 381.37483 165.90625 378.67411 161.88531 376.75 156.34375 C 376.26093 154.93519 375.78199 153.78125 375.65625 153.78125 C 375.53048 153.78125 374.86754 154.79339 374.1875 156.03125 C 374.02687 156.32365 373.85992 156.61375 373.6875 156.90625 C 373.6805 156.91925 373.66325 156.9246 373.65625 156.9375 C 373.49055 157.2178 373.33231 157.50165 373.15625 157.78125 C 373.14375 157.80125 373.10635 157.82375 373.09375 157.84375 C 372.92172 158.11585 372.77517 158.38505 372.59375 158.65625 C 372.57405 158.68525 372.55105 158.7211 372.53125 158.75 C 372.35504 159.01176 372.15331 159.27075 371.96875 159.53125 C 371.94065 159.57065 371.9031 159.61725 371.875 159.65625 C 370.45972 161.63835 368.8376 163.581 367.03125 165.375 C 366.99565 165.4107 366.94205 165.43385 366.90625 165.46875 C 366.67805 165.69395 366.45168 165.9045 366.21875 166.125 C 366.09755 166.2397 365.9662 166.35525 365.84375 166.46875 C 365.14974 167.11165 364.44697 167.74945 363.71875 168.34375 C 363.55459 168.47815 363.38445 168.6182 363.21875 168.75 C 363.09618 168.8471 362.96708 168.93525 362.84375 169.03125 C 361.41392 170.13855 360.23721 170.98695 359.09375 171.71875 C 358.84604 171.87875 358.58572 172.0404 358.34375 172.1875 C 358.31815 172.2035 358.30685 172.20385 358.28125 172.21875 C 357.96147 172.41195 357.63142 172.60525 357.3125 172.78125 C 357.2834 172.79725 357.24775 172.82775 357.21875 172.84375 C 356.545 173.21235 355.86492 173.5422 355.125 173.875 C 355.0915 173.89 355.06485 173.89135 355.03125 173.90625 C 354.64564 174.07835 354.23514 174.2638 353.8125 174.4375 C 353.7199 174.4752 353.62065 174.49435 353.53125 174.53125 C 353.49365 174.54625 353.4753 174.57875 353.4375 174.59375 C 353.33233 174.63585 353.2268 174.67675 353.125 174.71875 C 352.99974 174.77195 352.86834 174.824 352.75 174.875 C 352.6747 174.907 352.60435 174.93685 352.53125 174.96875 C 352.32731 175.05815 352.11944 175.167 351.9375 175.25 C 350.56244 175.8887 349.68595 176.4407 349.59375 176.75 C 349.59375 176.7986 349.68075 176.88575 349.78125 176.96875 C 350.21714 177.09605 351.59558 177.30975 353.1875 177.53125 C 357.2601 178.09785 358.41629 178.4454 359.84375 179.5 C 361.22848 180.5229 361.6096 180.973 362.34375 182.5 C 363.17371 184.2263 363.0886 185.9412 362.125 187.875 C 361.14204 189.8475 359.36715 191.1501 356.78125 191.8125 C 355.16343 192.2271 354.53588 192.2554 351.59375 191.875 C 348.2488 191.4425 348.25161 191.44545 346.5625 192.21875 C 344.90729 192.97665 341.81422 193.38705 340.4375 193.03125 C 340.09601 192.94305 339.0903 192.5789 338.1875 192.25 C 336.16144 191.512 331.81604 191.4508 329.59375 192.125 C 326.05758 193.1977 322.70161 192.43 320.28125 190 C 319.37269 189.0877 318.54953 187.9304 318.375 187.3125 C 318.17339 186.5988 317.84264 186.21525 317.4375 186.15625 C 316.77132 186.05925 312.89722 188.2803 310.21875 190.3125 C 309.30668 191.0046 307.98889 191.75675 307.28125 191.96875 C 305.47528 192.50975 302.45348 192.444 300.875 191.8125 C 299.78691 191.3769 299.00501 191.30895 296.5625 191.46875 C 294.91352 191.57665 292.71195 191.84135 291.6875 192.09375 C 288.98945 192.75835 285.80263 192.71585 284.15625 191.96875 C 283.03745 191.46045 282.22466 191.3815 279.34375 191.4375 C 276.40389 191.4946 275.65372 191.3887 274.46875 190.84375 C 269.25728 188.44765 268.22578 182.96685 272.3125 179.46875 C 273.90671 178.10415 275.69211 177.5017 278.8125 177.25 C 281.81921 177.0075 286.54252 176.47275 287.4375 176.28125 C 288.27524 176.10195 288.30759 175.82675 287.40625 175.21875 C 287.10567 175.02435 286.74759 174.82045 286.34375 174.59375 C 285.36199 174.04265 283.57018 172.9309 282.375 172.125 C 281.17982 171.3191 279.3682 170.1865 278.34375 169.625 C 274.59799 167.572 270.20461 163.3702 267.28125 159.0625 C 266.70492 158.21334 266.11837 157.58 265.96875 157.625 C 265.81914 157.6702 265.38524 158.56114 265 159.625 C 264.15922 161.947 263.0474 163.6611 261.875 164.5 C 261.7968 164.5562 261.73502 164.60825 261.65625 164.65625 C 261.10296 164.99365 260.62618 165.208 260.1875 165.25 C 259.62349 165.3036 259.11603 165.09165 258.5625 164.65625 C 256.72849 163.21365 255.61883 159.01971 254.75 150.28125 C 254.15883 144.33523 254.36707 141.57825 255.71875 137.4375 C 256.93536 133.71052 258.22893 131.51517 260.65625 129.09375 C 262.47443 127.28 263.17293 126.23154 264.625 123.3125 L 266.40625 119.78125 L 265.28125 117.15625 C 259.90973 104.41986 259.42369 89.3099 263.90625 75.84375 C 266.83348 67.04997 271.48943 59.57307 278.1875 52.875 C 283.84453 47.21797 289.41559 43.40776 296.59375 40.34375 C 304.05665 37.1582 311.91831 35.61905 319.6875 35.59375 z "
       id="rect3771"
       transform="translate(0,572.36218)" />
    <text
       xml:space="preserve"
       style="font-size:32px;font-style:normal;font-variant:normal;font-weight:normal;font-stretch:normal;fill:#000000;fill-opacity:1;stroke:none;filter:url(#filter3826);font-family:Comfortaa;-inkscape-font-specification:Comfortaa"
       x="208.27852"
       y="801.51508"
       id="text3773-4"><tspan
         sodipodi:role="line"
         id="tspan3775-7"
         x="208.27852"
         y="801.51508">GNU/Linux fsOS</tspan></text>
    <text
       xml:space="preserve"
       style="font-size:32px;font-style:normal;font-variant:normal;font-weight:normal;font-stretch:normal;fill:url(#linearGradient3813);fill-opacity:1.0;stroke:none;font-family:Comfortaa;-inkscape-font-specification:Comfortaa"
       x="206.43661"
       y="799.88495"
       id="text3773"><tspan
         sodipodi:role="line"
         id="tspan3775"
         x="206.43661"
         y="799.88495"
         style="fill-opacity:1.0;fill:url(#linearGradient3813)">GNU/Linux fsOS</tspan></text>
  </g>
</svg>
